inDegrees=no
num_controls=7
num_derivatives=13
num_iterations=162
num_multipliers=7
num_parameters=0
num_slacks=7
num_states=26
objective=5.715278
objective_accelerations=0.495706
objective_balance=0.024969
objective_effort=0.519437
objective_height=4.603015
objective_ligament=0.072151
solver_duration=1752.581765
status=Solve_Succeeded
success=true
DataType=double
version=3
OpenSimVersion=4.4-2022-07-23-0e9fedc
endheader
time	/jointset/ground_pelvis/pelvis_tilt/value	/jointset/ground_pelvis/pelvis_tx/value	/jointset/ground_pelvis/pelvis_ty/value	/jointset/hip_l/hip_flexion_l/value	/jointset/hip_l/hip_adduction_l/value	/jointset/hip_l/hip_rotation_l/value	/jointset/back/lumbar_extension/value	/jointset/patellofemoral_l/patellar_flexion_l/value	/jointset/knee_l/knee_flexion_l/value	/jointset/knee_l/knee_adduction_l/value	/jointset/knee_l/knee_rotation_l/value	/jointset/ankle_l/ankle_angle_l/value	/jointset/subtalar_l/subtalar_angle_l/value	/jointset/ground_pelvis/pelvis_tilt/speed	/jointset/ground_pelvis/pelvis_tx/speed	/jointset/ground_pelvis/pelvis_ty/speed	/jointset/hip_l/hip_flexion_l/speed	/jointset/hip_l/hip_adduction_l/speed	/jointset/hip_l/hip_rotation_l/speed	/jointset/back/lumbar_extension/speed	/jointset/patellofemoral_l/patellar_flexion_l/speed	/jointset/knee_l/knee_flexion_l/speed	/jointset/knee_l/knee_adduction_l/speed	/jointset/knee_l/knee_rotation_l/speed	/jointset/ankle_l/ankle_angle_l/speed	/jointset/subtalar_l/subtalar_angle_l/speed	/forceset/tau_hip_flexion_l	/forceset/tau_hip_adduction_l	/forceset/tau_hip_rotation_l	/forceset/tau_knee_flexion_l	/forceset/tau_ankle_angle_l	/forceset/tau_subtalar_angle_l	/forceset/tau_lumbar_extension	lambda_cid13_p0	lambda_cid13_p1	lambda_cid13_p2	lambda_cid13_p3	lambda_cid13_p4	lambda_cid13_p5	lambda_cid14_p0	/jointset/ground_pelvis/pelvis_tilt/accel	/jointset/ground_pelvis/pelvis_tx/accel	/jointset/ground_pelvis/pelvis_ty/accel	/jointset/hip_l/hip_flexion_l/accel	/jointset/hip_l/hip_adduction_l/accel	/jointset/hip_l/hip_rotation_l/accel	/jointset/back/lumbar_extension/accel	/jointset/patellofemoral_l/patellar_flexion_l/accel	/jointset/knee_l/knee_flexion_l/accel	/jointset/knee_l/knee_adduction_l/accel	/jointset/knee_l/knee_rotation_l/accel	/jointset/ankle_l/ankle_angle_l/accel	/jointset/subtalar_l/subtalar_angle_l/accel	gamma_cid13_p0	gamma_cid13_p1	gamma_cid13_p2	gamma_cid13_p3	gamma_cid13_p4	gamma_cid13_p5	gamma_cid14_p0
0	-0.03666523207471661	0.05660896885531501	0.9203443888139571	0.3085811930696054	-0.2955960445999107	-0.300621956470447	-0.3879500408040475	0.2499276582271247	0.249927658227084	-0.1745327122244536	-0.1735664496738916	-0.0008036543073733089	0.0004710151270103312	0	0	0	0	0	0	0	0	0	0	0	0	0	0.06440257827645951	-0.02904554510588378	-0.01645217165446033	-0.2149697832238835	0.1366566866776687	-0.01557337541381413	0.003706739393717821	0.03567742363000295	3.735596008176499	2.401614968309966	30.6033214748185	-621.5803351838662	-67.33981455186259	-23.16417746304549	-1.573982015348171	-2.475509348260053	-0.9587727350235998	9.827060415988782	-0.7411169560017195	2.863519883924601	-7.324649115126411	8.252566994991344	8.252566994990511	1.102251602463936	-0.1613473569367698	0.4021725081638952	-0.6641087514988996	1.360461669168504e-08	1.200799464784607e-07	3.313448912427224e-08	-2.115494834057193e-08	1.458308364094277e-07	4.13991914022485e-08	2.992245323289399e-09
0.01	-0.03673980545287093	0.05648729297301761	0.9202975080319573	0.3090602472265114	-0.2956333632069461	-0.3004783631784453	-0.388314528111361	0.2503320016548373	0.2503320016547894	-0.1744810699272647	-0.1735716520994069	-0.0007842392906458562	0.0004372926814458409	-0.01484452906798089	-0.02414544621064761	-0.009334812631308337	0.09527179750152637	-0.007426642559693337	0.02859715565483809	-0.07235984938264239	0.08049424404481585	0.08049424404481302	0.0102730518878925	-0.001017582814251145	0.003965795052908426	-0.006676074928615491	0.05994248568041735	-0.03944305740026514	-0.01609554276705922	-0.2137267587498452	0.1344658638351456	-0.00389865300444265	0.008655015977458618	-0.3222094769132385	-1.161792928672277	3.056427235492179	28.42791557493763	-624.4914842552326	-77.23517778900363	-23.16902420691195	-1.429173395794369	-2.355606954265957	-0.9146047958072944	9.296380185525877	-0.7378975112056616	2.839588141700828	-7.111011035597169	7.891686286644257	7.891686286644201	0.9815426348262674	-0.06852599519719761	0.4062061577234529	-0.6591179792095887	-1.410819806371159e-08	1.134480076331487e-07	9.622164398244035e-08	6.012078136849442e-09	2.801840159786922e-08	3.108787404718126e-09	-5.098816367750504e-09
0.02	-0.03696072113041046	0.05612985368925009	0.9201585252699195	0.3104758475120794	-0.2957438401606287	-0.3000524433828081	-0.389386485549663	0.2515300541584831	0.2515300541584781	-0.1743283549804125	-0.1735863428033581	-0.0007226816926160275	0.0003388572634616855	-0.02926845986660773	-0.04715268029402328	-0.0184203960075919	0.1873092257346666	-0.01463166932949969	0.05646530072718057	-0.1414940261956642	0.1587418151863323	0.1587418151863308	0.02021452989074894	-0.001897655689618666	0.008428516260566217	-0.01294259448391322	0.05548239308458085	-0.0498405696946401	-0.01573891387965605	-0.2124837342756821	0.1322750409926761	0.007776069404953759	0.01360329256133054	-0.616172871245163	-6.068691681098135	3.710832862912746	26.20976428491791	-626.4050404260983	-87.05372553404656	-23.1832659036149	-1.489862361476076	-2.247866922806786	-0.9089268840186767	9.180186562311635	-0.6967937980244748	2.717717767425452	-6.679514601201524	7.803232414331656	7.803232414331657	1.03593682545648	-0.1338453691602476	0.5015577391124668	-0.5821976768359569	-4.182101281910821e-08	1.068160687878368e-07	1.593087988406084e-07	3.317910461427082e-08	-8.979403321368921e-08	-3.518161659281225e-08	-1.318987805879041e-08
0.03	-0.03732385114952047	0.05554750430497089	0.919929663143314	0.3127966120498829	-0.2959250640281101	-0.2993519822723108	-0.3911340733962415	0.2534995138037361	0.2534995138037084	-0.1740776253492941	-0.1736095661355265	-0.0006147280012451429	0.0001797621401859871	-0.04327013633293551	-0.06918005194944936	-0.02733336212103243	0.2763676403688035	-0.02156373658322901	0.08349825128687206	-0.2075555421594603	0.2347839031625397	0.2347839031625303	0.02988247829755698	-0.002726556569467917	0.01317441261270113	-0.01881995373880629	0.04894247635698511	-0.04334474705152153	-0.01503785662014819	-0.2075269481414434	0.1291455335868936	0.005231020664703921	0.01948366231295377	-1.751334201080491	-4.833905947074458	3.593117376118543	25.83990208150477	-627.8075669383718	-83.58560419271942	-23.20630502931644	-1.342213964547892	-2.15959385252462	-0.8796998310081469	8.697255639291935	-0.6840392983147334	2.67676225473054	-6.499269947767536	7.449768055216933	7.449768055215619	0.9249168959202068	-0.05431890435013561	0.4629351027193654	-0.5820687790576342	-5.816188864967447e-08	1.06230103282761e-07	2.007055119024933e-07	5.00912089614332e-08	-1.630047145719755e-07	-5.47738304133707e-08	-1.800902425872403e-08
0.04	-0.03782437666841259	0.05474899689101093	0.919612227684373	0.315993678079069	-0.2961741337899838	-0.2983850559453186	-0.3935282363732318	0.2562184085419402	0.2562184085419372	-0.1737316776245736	-0.1736404597678733	-0.0004589494424624337	-3.641932148716734e-05	-0.05674755981253367	-0.09038428623017465	-0.03613506247468347	0.3625695240159869	-0.02820084820768392	0.1097583440261543	-0.2708090522750389	0.3086288337768098	0.3086288337767921	0.03925814860945974	-0.003431715727429046	0.01799348974303508	-0.02435986216337172	0.04240255962950668	-0.03684892440834306	-0.0143367993606754	-0.2025701620071148	0.1260160261811668	0.002685971924535423	0.02536403206461796	-2.827375320304327	-3.606918375401378	3.473728195014393	25.42221116402161	-628.3014522754604	-80.04384287047711	-23.23742435803029	-1.385011764128859	-2.083239447867721	-0.8866737320607992	8.608880364921061	-0.6378026721695977	2.563146203343535	-6.117913431557275	7.363800941944382	7.363800941944278	0.9774812064754744	-0.1090970247827782	0.5161938947510462	-0.5147075107708635	-7.426829151271846e-08	1.057687970218137e-07	2.416549993603311e-07	6.679187161518819e-08	-2.352957721477202e-07	-7.398051453955859e-08	-2.276070828358331e-08
0.05	-0.03845750107830464	0.05374284129857459	0.9192071579568499	0.3200388133214606	-0.2964879946517453	-0.2971596286574949	-0.396540440773281	0.259664965337145	0.2596649653371908	-0.173293320960622	-0.1736779857526445	-0.000254264231632433	-0.0003060826235609795	-0.06980200573693235	-0.1106807824266594	-0.04487195244249603	0.4459608739252995	-0.03451966880460394	0.1351922506628434	-0.331154204537017	0.3803120359812878	0.380312035981266	0.04835124010537932	-0.004052843803413745	0.02298400151703266	-0.02950443842612197	0.03653306520428648	-0.03683773712188013	-0.01380982333551264	-0.2000826001912241	0.124723366200572	0.005158454645460674	0.0309006513069746	-3.122415200393546	-4.61557869893846	3.6191394622502	24.03492271595105	-628.9622956394575	-81.29815463506657	-23.27571320692918	-1.254367003429448	-1.97793374055734	-0.8662046844072705	8.129755879997559	-0.6212112646281701	2.513248988080063	-5.921172641936604	7.015011057424992	7.015011057424404	0.8659685588652258	-0.03548466193467605	0.4965466618124735	-0.5041229760900595	-8.72946791852657e-08	8.309273849753188e-08	2.725844390208559e-07	7.925404821738995e-08	-2.978206361654819e-07	-9.481641411472078e-08	-2.827287593771563e-08
0.06	-0.03921891114685432	0.05253870493716641	0.9187149177185949	0.324902960778112	-0.2968635016217048	-0.2956839150844441	-0.4001417679996453	0.263817240393998	0.2638172403939915	-0.1727658842941256	-0.1737210958106597	1.539465554724384e-06	-0.0006251497466750982	-0.08240469153447284	-0.1299804400245427	-0.05356916462106664	0.5263719668770478	-0.04053006984850585	0.1598156010694849	-0.3886336175355719	0.4497724860947785	0.4497724860947532	0.05707414910988903	-0.004548530396534954	0.02821718701454791	-0.03424062637140095	0.03066357077891287	-0.03682654983548054	-0.01328284731093035	-0.1975950383753707	0.1234307062199277	0.007630937366311639	0.03643727054928003	-3.365423232092432	-5.631557909186965	3.763670940112059	22.59970612713735	-628.8180691126955	-82.48545806280927	-23.32016477604686	-1.294659738755964	-1.883871728148452	-0.8787381742124311	8.012828973408347	-0.5761187615659696	2.401034957333968	-5.544765578871909	6.919250523747073	6.919250523747102	0.9034447081935973	-0.08400872821021331	0.5647286394534138	-0.4330298472769985	-1.001913820076867e-07	5.948132198321494e-08	3.0309198193202e-07	9.1537762249e-08	-3.599342920334337e-07	-1.157209122351029e-07	-3.381706395518575e-08
0.07000000000000001	-0.04010441135464356	0.05114647640758258	0.9181357369772715	0.3305570625638662	-0.2972974632466772	-0.2939663177015509	-0.4043034266586765	0.2686533795548249	0.2686533795548629	-0.1721528427940361	-0.1737688763783979	0.0003108669580114623	-0.0009894325110265424	-0.09461924056196307	-0.1483056186049293	-0.06227100133074678	0.6039678257337093	-0.04620585247817653	0.1835695055507577	-0.4432422780269457	0.5170893750988877	0.5170893750988704	0.06547072953743348	-0.004984580000722576	0.03367759760443685	-0.03854685800353192	0.0243226755068847	-0.03477081024870611	-0.01271080189038089	-0.1949835503647411	0.1223268950373209	0.008342943100472478	0.04221087312357195	-3.627955333395892	-5.897006903977128	3.80849501742314	21.39634183303846	-628.7842961868645	-82.02650172370497	-23.3696335304271	-1.173437299713243	-1.782875376228797	-0.8665818122277239	7.560870417567862	-0.5548835009109632	2.342365919742544	-5.350540846100921	6.583019273305137	6.583019273306266	0.7982853369959977	-0.01989943021357779	0.5410874689632733	-0.4191031270228778	-1.084299049059182e-07	3.721168793186813e-08	3.223302410885407e-07	9.955525632863709e-08	-4.008017142587682e-07	-1.298935722258755e-07	-3.782890212556202e-08
